<svg version="1.1" viewBox="0 0 656 158" x="0px" y="0px" xml:space="preserve" xmlns="http://www.w3.org/2000/svg" xmlns:xlink="http://www.w3.org/1999/xlink">
	<g class="currentLayer" style="">
		<g id="placetopay_name">
			<path d="M178.7939910888672,95.95097351074219h-19.050003051757812v19.81999969482422h-12.699996948242188v-67.34798431396484c10.582992553710938,0,21.166000366210938,-0.09600067138671875,31.749008178710938,-0.09600067138671875c32.906005859375,-0.00101470947265625,33.001983642578125,47.623985290527344,0.0009918212890625,47.623985290527344ZM159.7449951171875,84.30897521972656h19.050003051757812c16.259994506835938,0,16.162994384765625,-23.860000610351562,0,-23.860000610351562h-19.050003051757812v23.860000610351562Z" fill="#707173" id="placetopay_P"/>
			<path d="M222.86099243164062,48.51896667480469v67.2509994506836h-11.641998291015625v-67.2509994506836h11.641998291015625Z" fill="#707173" id="placetopay_l"/>
			<path d="M270.77398681640625,68.33796691894531 h11.256999969482422 v47.43199920654297 h-11.064000129699707 l-0.578000009059906,-6.927000045776367 c-2.694000005722046,5.579999923706055 -10.10200023651123,8.27400016784668 -15.394000053405762,8.369999885559082 c-14.04699993133545,0.09600000083446503 -24.437000274658203,-8.562000274658203 -24.437000274658203,-25.207000732421875 c0,-16.356000900268555 10.871000289916992,-24.91900062561035 24.72599983215332,-24.822999954223633 c6.349999904632568,0 12.41100025177002,2.9830000400543213 15.104999542236328,7.697000026702881 L270.77398681640625,68.33796691894531 zM242.29598999023438,92.00596618652344 c0,9.043999671936035 6.254000186920166,14.430999755859375 14.04699993133545,14.430999755859375 c18.472999572753906,0 18.472999572753906,-28.767000198364258 0,-28.767000198364258 C248.54998779296875,77.67097473144531 242.29598999023438,82.96199035644531 242.29598999023438,92.00596618652344 z" fill="#707173" id="placetopay_a"/>
			<path d="M333.69598388671875,109.70896911621094 c-5.484000205993652,5.388000011444092 -11.255999565124512,7.504000186920166 -18.280000686645508,7.504000186920166 c-13.758000373840332,0 -25.20800018310547,-8.27400016784668 -25.20800018310547,-25.111000061035156 c0,-16.836999893188477 11.449999809265137,-25.111000061035156 25.20800018310547,-25.111000061035156 c6.734000205993652,0 11.930000305175781,1.9240000247955322 17.125,7.02400016784668 l-7.4079999923706055,7.793000221252441 c-2.7899999618530273,-2.500999927520752 -6.252999782562256,-3.752000093460083 -9.524999618530273,-3.752000093460083 c-7.888999938964844,0 -13.661999702453613,5.7729997634887695 -13.661999702453613,14.04699993133545 c0,9.043999671936035 6.1579999923706055,13.854000091552734 13.470000267028809,13.854000091552734 c3.752000093460083,0 7.504000186920166,-1.0579999685287476 10.390999794006348,-3.944000005722046 L333.69598388671875,109.70896911621094 z" fill="#707173" id="placetopay_c"/>
			<path d="M350.82098388671875,96.23997497558594 c0.7699999809265137,5.868000030517578 5.86899995803833,10.10200023651123 14.142999649047852,10.10200023651123 c4.329999923706055,0 10.005999565124512,-1.6360000371932983 12.699999809265137,-4.426000118255615 l7.505000114440918,7.4079999923706055 c-5.002999782562256,5.195000171661377 -13.180999755859375,7.697000026702881 -20.39699935913086,7.697000026702881 c-16.356000900268555,0 -26.072999954223633,-10.10200023651123 -26.072999954223633,-25.30299949645996 c0,-14.432000160217285 9.812999725341797,-24.822999954223633 25.207000732421875,-24.822999954223633 c15.875,0 25.78499984741211,9.812999725341797 23.957000732421875,29.3439998626709 H350.82098388671875 zM376.6059875488281,86.52198791503906 c-0.7699999809265137,-6.1579999923706055 -5.579999923706055,-9.236000061035156 -12.3149995803833,-9.236000061035156 c-6.349999904632568,0 -11.545000076293945,3.0789999961853027 -13.277000427246094,9.236000061035156 H376.6059875488281 z" fill="#707173" id="placetopay_e"/>
			<path d="M411.43499755859375,54.96498107910156 v13.470000267028809 h13.085000038146973 v10.10200023651123 h-13.180999755859375 v20.493000030517578 c0,4.521999835968018 2.502000093460083,6.735000133514404 6.1579999923706055,6.735000133514404 c1.8279999494552612,0 3.944999933242798,-0.578000009059906 5.676000118255615,-1.4429999589920044 l3.2709999084472656,10.005999565124512 c-3.367000102996826,1.347000002861023 -6.1579999923706055,1.9240000247955322 -9.717000007629395,2.0209999084472656 c-10.293999671936035,0.3840000033378601 -17.02899932861328,-5.484000205993652 -17.02899932861328,-17.319000244140625 v-20.493000030517578 h-8.85200023651123 v-10.10200023651123 h8.85200023651123 v-12.218999862670898 L411.43499755859375,54.96498107910156 z" fill="#7DD855" id="placetopay_t"/>
			<path d="M480.4179992675781,92.10197448730469 c0,13.661999702453613 -9.331999778747559,24.72599983215332 -24.72599983215332,24.72599983215332 c-15.394000053405762,0 -24.6299991607666,-11.064000129699707 -24.6299991607666,-24.72599983215332 c0,-13.5649995803833 9.428000450134277,-24.72599983215332 24.534000396728516,-24.72599983215332 C470.7010192871094,67.37599182128906 480.4179992675781,78.53697204589844 480.4179992675781,92.10197448730469 zM442.79998779296875,92.10197448730469 c0,7.216000080108643 4.329999923706055,13.951000213623047 12.892999649047852,13.951000213623047 c8.562000274658203,0 12.892000198364258,-6.734000205993652 12.892000198364258,-13.951000213623047 c0,-7.11899995803833 -5.002999782562256,-14.04699993133545 -12.892000198364258,-14.04699993133545 C447.2259826660156,78.05598449707031 442.79998779296875,84.98298645019531 442.79998779296875,92.10197448730469 z" fill="#7DD855" id="placetopay_o"/>
			<path d="M521.1169738769531,95.95097351074219 h-19.048999786376953 v19.81999969482422 h-12.699999809265137 V48.42298889160156 c10.583000183105469,0 21.166000366210938,-0.09600000083446503 31.749000549316406,-0.09600000083446503 C554.0209655761719,48.32597351074219 554.1169738769531,95.95097351074219 521.1169738769531,95.95097351074219 zM502.0669860839844,84.30897521972656 h19.048999786376953 c16.260000228881836,0 16.163000106811523,-23.860000610351562 0,-23.860000610351562 h-19.048999786376953 V84.30897521972656 z" fill="#707173" id="placetopay_P2"/>
			<path d="M589.1390075683594,68.33796691894531 h11.256999969482422 v47.43199920654297 h-11.064000129699707 l-0.578000009059906,-6.927000045776367 c-2.694000005722046,5.579999923706055 -10.10200023651123,8.27400016784668 -15.394000053405762,8.369999885559082 c-14.04699993133545,0.09600000083446503 -24.437000274658203,-8.562000274658203 -24.437000274658203,-25.207000732421875 c0,-16.356000900268555 10.871999740600586,-24.91900062561035 24.72599983215332,-24.822999954223633 c6.349999904632568,0 12.41100025177002,2.9830000400543213 15.104999542236328,7.697000026702881 L589.1390075683594,68.33796691894531 zM560.6609802246094,92.00596618652344 c0,9.043999671936035 6.254000186920166,14.430999755859375 14.04699993133545,14.430999755859375 c18.472999572753906,0 18.472999572753906,-28.767000198364258 0,-28.767000198364258 C566.9150085449219,77.67097473144531 560.6609802246094,82.96199035644531 560.6609802246094,92.00596618652344 z" fill="#707173" id="placetopay_a2"/>
			<path d="M656.1039733886719,68.33796691894531 l-28.959999084472656,67.25199890136719 h-12.892999649047852 l8.85200023651123,-20.589000701904297 l-18.95400047302246,-46.6619987487793 h13.661999702453613 l7.216000080108643,20.493000030517578 l4.521999835968018,13.373000144958496 l4.9070000648498535,-13.085000038146973 l8.659000396728516,-20.781999588012695 H656.1039733886719 z" fill="#707173" id="placetopay_y"/>
		</g>
		<path d="M7.852996826171875,157.6239776611328c-1.1870002746582031,0.001007080078125,-2.374000072479248,-0.3070068359375,-3.437999725341797,-0.9210052490234375c-2.127000093460083,-1.227996826171875,-3.437999963760376,-3.4980010986328125,-3.437999963760376,-5.9539947509765625v-35.7239990234375c0,-2.457000732421875,1.311000108718872,-4.7259979248046875,3.437999963760376,-5.954002380371094l51.56399917602539,-29.769996643066406l-41.25,-23.816001892089844v30.246002197265625c0,3.7969970703125,-3.078000068664551,6.875,-6.875999927520752,6.875c-3.796999931335449,0,-6.875999927520752,-3.0780029296875,-6.875999927520752,-6.875v-42.15399932861328c0,-2.457000732421875,1.310999870300293,-4.7259979248046875,3.437999725341797,-5.953998565673828c2.126999855041504,-1.2280006408691406,4.748000144958496,-1.2280006408691406,6.87600040435791,0l61.87599563598633,35.724002838134766c2.1269989013671875,1.227996826171875,3.4380035400390625,3.4980010986328125,3.4380035400390625,5.954002380371094s-1.3109970092773438,4.7259979248046875,-3.4380035400390625,5.954002380371094l-58.43899917602539,33.74000549316406v19.847000122070312l88.17298889160156,-50.90699768066406c3.121002197265625,-1.802001953125,4.9850006103515625,-5.028999328613281,4.9850006103515625,-8.633003234863281c0,-3.6039962768554688,-1.8629989624023438,-6.831001281738281,-4.9850006103515625,-8.633003234863281l-98.48600006103516,-56.861000061035156c-3.2880001068115234,-1.8979997634887695,-4.414999961853027,-6.103000164031982,-2.5160000324249268,-9.392000198364258c1.8989999294281006,-3.2880001068115234,6.102999687194824,-4.415999889373779,9.392000198364258,-2.5160000324249268l98.48600006103516,56.861000061035156c7.426002502441406,4.286998748779297,11.860000610351562,11.965999603271484,11.860000610351562,20.540996551513672c0,8.574996948242188,-4.433998107910156,16.253997802734375,-11.860000610351562,20.54199981689453l-98.48599243164062,56.85900115966797c-1.0629959106445312,0.613983154296875,-2.2509994506835938,0.920989990234375,-3.4379959106445312,0.920989990234375Z" fill="#7DD855" id="placetopay_simbolo"/>
	</g>
</svg>